<mxfile>
    <diagram id="QCBPmzjnCGmRcswznW8n" name="Page-1">
        <mxGraphModel dx="884" dy="622" grid="1" gridSize="10" guides="1" tooltips="1" connect="1" arrows="1" fold="1" page="1" pageScale="1" pageWidth="1100" pageHeight="850" math="0" shadow="0">
            <root>
                <mxCell id="0"/>
                <mxCell id="1" parent="0"/>
                <mxCell id="53" value="&lt;div&gt;&lt;div&gt;const Mask1: number = 0x7f; // 127&lt;/div&gt;&lt;div&gt;const Mask2: number = 0x80; // 128&lt;/div&gt;&lt;div&gt;const ShiftBy: number = 7;&lt;/div&gt;&lt;div&gt;&lt;br&gt;&lt;/div&gt;&lt;div&gt;function readUInt32(pack: Buffer, offset: number): { value: number, offset: number } {&lt;/div&gt;&lt;div&gt;&lt;span&gt;&lt;/span&gt;&amp;nbsp; let b: number = pack[offset++];&lt;/div&gt;&lt;div&gt;&lt;span&gt;&lt;/span&gt;&amp;nbsp; let value: number = b &amp;amp; Svf2Properties.Mask1;&lt;/div&gt;&lt;div&gt;&lt;span&gt;&lt;/span&gt;&amp;nbsp; let shiftBy: number = Svf2Properties.ShiftBy;&lt;/div&gt;&lt;div&gt;&lt;span&gt;&amp;nbsp; while ((b &amp;amp; Svf2Properties.Mask2) != 0) {&lt;/span&gt;&lt;br&gt;&lt;/div&gt;&lt;div&gt;&lt;span&gt;&lt;/span&gt;&amp;nbsp; &amp;nbsp; b = pack[offset++];&lt;/div&gt;&lt;div&gt;&lt;span&gt;&lt;/span&gt;&amp;nbsp; &amp;nbsp; value |= (b &amp;amp; Svf2Properties.Mask1) &amp;lt;&amp;lt; shiftBy;&lt;/div&gt;&lt;div&gt;&lt;span&gt;&lt;/span&gt;&amp;nbsp; &amp;nbsp; shiftBy += Svf2Properties.ShiftBy;&lt;/div&gt;&lt;div&gt;&lt;span&gt;&lt;/span&gt;&amp;nbsp; }&lt;/div&gt;&lt;div&gt;&lt;span&gt;&amp;nbsp; return ({ value: value, offset: offset });&lt;/span&gt;&lt;br&gt;&lt;/div&gt;&lt;div&gt;}&lt;/div&gt;&lt;div&gt;&lt;br&gt;&lt;/div&gt;&lt;div&gt;function buildEAV(objectId: number, avs32: Uint32Array, pack: Buffer): { attributeIndex: number, valueIndex: number }[] {&lt;/div&gt;&lt;div&gt;&lt;span&gt;&lt;/span&gt;&amp;nbsp; let offset: number = avs32[objectId];&lt;/div&gt;&lt;div&gt;&lt;span&gt;&lt;/span&gt;&amp;nbsp; const endOffset: number = avs32[objectId + 1];&lt;/div&gt;&lt;div&gt;&lt;br&gt;&lt;/div&gt;&lt;div&gt;&lt;span&gt;&lt;/span&gt;&amp;nbsp; const result: { attributeIndex: number, valueIndex: number }[] = [];&lt;/div&gt;&lt;div&gt;&lt;span&gt;&lt;/span&gt;&amp;nbsp; let attributeIndex: number = 0;&lt;/div&gt;&lt;div&gt;&lt;span&gt;&lt;/span&gt;&amp;nbsp; while (offset &amp;lt; endOffset) {&lt;/div&gt;&lt;div&gt;&lt;span&gt;&lt;/span&gt;&amp;nbsp; &amp;nbsp; let valueIndex: any = Svf2Properties.readUInt32(pack, offset);&lt;/div&gt;&lt;div&gt;&lt;span&gt;&lt;/span&gt;&amp;nbsp; &amp;nbsp; // attribute ID is delta encoded from the previously seen attribute ID, add that back in&lt;/div&gt;&lt;div&gt;&lt;span&gt;&lt;/span&gt;&amp;nbsp; &amp;nbsp; attributeIndex += valueIndex.value;&lt;/div&gt;&lt;div&gt;&lt;span&gt;&lt;/span&gt;&amp;nbsp; &amp;nbsp; valueIndex = Svf2Properties.readUInt32(pack, valueIndex.offset);&lt;/div&gt;&lt;div&gt;&lt;span&gt;&lt;/span&gt;&amp;nbsp; &amp;nbsp; offset = valueIndex.offset;&lt;/div&gt;&lt;div&gt;&lt;span&gt;&lt;/span&gt;&amp;nbsp; &amp;nbsp; result.push({&lt;/div&gt;&lt;div&gt;&lt;span&gt;&lt;/span&gt;&amp;nbsp; &amp;nbsp; &amp;nbsp; attributeIndex: attributeIndex,&lt;/div&gt;&lt;div&gt;&lt;span&gt;&lt;/span&gt;&amp;nbsp; &amp;nbsp; &amp;nbsp; valueIndex: valueIndex.value&lt;/div&gt;&lt;div&gt;&lt;span&gt;&lt;/span&gt;&amp;nbsp; &amp;nbsp; });&lt;/div&gt;&lt;div&gt;&lt;span&gt;&lt;/span&gt;&amp;nbsp; }&lt;/div&gt;&lt;div&gt;&lt;span&gt;&lt;/span&gt;&amp;nbsp; return (result);&lt;/div&gt;&lt;div&gt;}&lt;span&gt;&amp;nbsp;&lt;/span&gt;&lt;/div&gt;&lt;/div&gt;" style="text;html=1;align=left;verticalAlign=middle;resizable=0;points=[];autosize=1;" vertex="1" parent="1">
                    <mxGeometry x="700" y="5" width="650" height="500" as="geometry"/>
                </mxCell>
                <mxCell id="747YwQ7zbLFgy_TnoXMY-12" value="ids.json" style="swimlane;html=1;childLayout=stackLayout;resizeParent=1;resizeParentMax=0;startSize=20;fillColor=#0050ef;strokeColor=#001DBC;fontColor=#ffffff;" parent="1" vertex="1">
                    <mxGeometry x="80" y="650" width="190" height="160" as="geometry"/>
                </mxCell>
                <mxCell id="747YwQ7zbLFgy_TnoXMY-14" value="id (index)" style="swimlane;html=1;startSize=20;fillColor=#ffe6cc;strokeColor=#d79b00;swimlaneFillColor=#FFE6CC;fontColor=#000000;" parent="747YwQ7zbLFgy_TnoXMY-12" vertex="1">
                    <mxGeometry y="20" width="100" height="140" as="geometry"/>
                </mxCell>
                <mxCell id="747YwQ7zbLFgy_TnoXMY-22" value="1" style="text;html=1;resizable=0;points=[];autosize=1;align=left;verticalAlign=top;spacingTop=-4;fontColor=#000000;" parent="747YwQ7zbLFgy_TnoXMY-14" vertex="1">
                    <mxGeometry x="45" y="30" width="20" height="20" as="geometry"/>
                </mxCell>
                <mxCell id="747YwQ7zbLFgy_TnoXMY-23" value="2" style="text;html=1;resizable=0;points=[];autosize=1;align=left;verticalAlign=top;spacingTop=-4;fontColor=#000000;" parent="747YwQ7zbLFgy_TnoXMY-14" vertex="1">
                    <mxGeometry x="45" y="55" width="20" height="20" as="geometry"/>
                </mxCell>
                <mxCell id="747YwQ7zbLFgy_TnoXMY-24" value="3" style="text;html=1;resizable=0;points=[];autosize=1;align=left;verticalAlign=top;spacingTop=-4;fontColor=#000000;" parent="747YwQ7zbLFgy_TnoXMY-14" vertex="1">
                    <mxGeometry x="45" y="80" width="20" height="20" as="geometry"/>
                </mxCell>
                <mxCell id="747YwQ7zbLFgy_TnoXMY-25" value="..." style="text;html=1;resizable=0;points=[];autosize=1;align=left;verticalAlign=top;spacingTop=-4;fontColor=#000000;" parent="747YwQ7zbLFgy_TnoXMY-14" vertex="1">
                    <mxGeometry x="45" y="105" width="30" height="20" as="geometry"/>
                </mxCell>
                <mxCell id="747YwQ7zbLFgy_TnoXMY-15" value="external_id" style="swimlane;html=1;startSize=20;fillColor=#dae8fc;strokeColor=#6c8ebf;labelBackgroundColor=none;swimlaneFillColor=#DAE8FC;fontColor=#000000;" parent="747YwQ7zbLFgy_TnoXMY-12" vertex="1">
                    <mxGeometry x="100" y="20" width="90" height="140" as="geometry"/>
                </mxCell>
                <mxCell id="747YwQ7zbLFgy_TnoXMY-17" value="{48173}" style="text;html=1;resizable=0;points=[];autosize=1;align=left;verticalAlign=top;spacingTop=-4;fontColor=#000000;" parent="747YwQ7zbLFgy_TnoXMY-15" vertex="1">
                    <mxGeometry x="20" y="30" width="60" height="20" as="geometry"/>
                </mxCell>
                <mxCell id="747YwQ7zbLFgy_TnoXMY-19" value="{5671}" style="text;html=1;resizable=0;points=[];autosize=1;align=left;verticalAlign=top;spacingTop=-4;fontColor=#000000;" parent="747YwQ7zbLFgy_TnoXMY-15" vertex="1">
                    <mxGeometry x="20" y="55" width="50" height="20" as="geometry"/>
                </mxCell>
                <mxCell id="747YwQ7zbLFgy_TnoXMY-18" value="{176}" style="text;html=1;resizable=0;points=[];autosize=1;align=left;verticalAlign=top;spacingTop=-4;fontColor=#000000;" parent="747YwQ7zbLFgy_TnoXMY-15" vertex="1">
                    <mxGeometry x="20" y="80" width="40" height="20" as="geometry"/>
                </mxCell>
                <mxCell id="747YwQ7zbLFgy_TnoXMY-20" value="..." style="text;html=1;resizable=0;points=[];autosize=1;align=left;verticalAlign=top;spacingTop=-4;fontColor=#000000;" parent="747YwQ7zbLFgy_TnoXMY-15" vertex="1">
                    <mxGeometry x="20" y="105" width="30" height="20" as="geometry"/>
                </mxCell>
                <mxCell id="747YwQ7zbLFgy_TnoXMY-27" value="attrs.json" style="swimlane;html=1;childLayout=stackLayout;resizeParent=1;resizeParentMax=0;startSize=20;labelBackgroundColor=none;fillColor=#0050ef;strokeColor=#001DBC;fontColor=#ffffff;" parent="1" vertex="1">
                    <mxGeometry x="640" y="650" width="1010" height="180" as="geometry">
                        <mxRectangle x="110" y="290" width="60" height="20" as="alternateBounds"/>
                    </mxGeometry>
                </mxCell>
                <mxCell id="747YwQ7zbLFgy_TnoXMY-28" value="id (index)" style="swimlane;html=1;startSize=20;swimlaneFillColor=#FFE6CC;fillColor=#FFE6CC;fontColor=#000000;strokeColor=#D79B00;" parent="747YwQ7zbLFgy_TnoXMY-27" vertex="1">
                    <mxGeometry y="20" width="120" height="160" as="geometry">
                        <mxRectangle y="20" width="70" height="460" as="alternateBounds"/>
                    </mxGeometry>
                </mxCell>
                <mxCell id="747YwQ7zbLFgy_TnoXMY-49" value="1" style="text;html=1;resizable=0;points=[];autosize=1;align=left;verticalAlign=top;spacingTop=-4;fontColor=#000000;" parent="747YwQ7zbLFgy_TnoXMY-28" vertex="1">
                    <mxGeometry x="50" y="30" width="20" height="20" as="geometry"/>
                </mxCell>
                <mxCell id="747YwQ7zbLFgy_TnoXMY-50" value="2" style="text;html=1;resizable=0;points=[];autosize=1;align=left;verticalAlign=top;spacingTop=-4;fontColor=#000000;" parent="747YwQ7zbLFgy_TnoXMY-28" vertex="1">
                    <mxGeometry x="50" y="55" width="20" height="20" as="geometry"/>
                </mxCell>
                <mxCell id="747YwQ7zbLFgy_TnoXMY-51" value="3" style="text;html=1;resizable=0;points=[];autosize=1;align=left;verticalAlign=top;spacingTop=-4;fontColor=#000000;" parent="747YwQ7zbLFgy_TnoXMY-28" vertex="1">
                    <mxGeometry x="50" y="80" width="20" height="20" as="geometry"/>
                </mxCell>
                <mxCell id="747YwQ7zbLFgy_TnoXMY-52" value="4" style="text;html=1;resizable=0;points=[];autosize=1;align=left;verticalAlign=top;spacingTop=-4;fontColor=#000000;" parent="747YwQ7zbLFgy_TnoXMY-28" vertex="1">
                    <mxGeometry x="50" y="105" width="20" height="20" as="geometry"/>
                </mxCell>
                <mxCell id="747YwQ7zbLFgy_TnoXMY-53" value="..." style="text;html=1;resizable=0;points=[];autosize=1;align=left;verticalAlign=top;spacingTop=-4;fontColor=#000000;" parent="747YwQ7zbLFgy_TnoXMY-28" vertex="1">
                    <mxGeometry x="50" y="130" width="30" height="20" as="geometry"/>
                </mxCell>
                <mxCell id="747YwQ7zbLFgy_TnoXMY-29" value="name" style="swimlane;html=1;startSize=20;fillColor=#dae8fc;strokeColor=#6c8ebf;swimlaneFillColor=#DAE8FC;fontColor=#000000;" parent="747YwQ7zbLFgy_TnoXMY-27" vertex="1">
                    <mxGeometry x="120" y="20" width="100" height="160" as="geometry"/>
                </mxCell>
                <mxCell id="747YwQ7zbLFgy_TnoXMY-54" value="Volume" style="text;html=1;resizable=0;points=[];autosize=1;align=left;verticalAlign=top;spacingTop=-4;fontColor=#000000;" parent="747YwQ7zbLFgy_TnoXMY-29" vertex="1">
                    <mxGeometry x="15" y="30" width="60" height="20" as="geometry"/>
                </mxCell>
                <mxCell id="747YwQ7zbLFgy_TnoXMY-55" value="Mass" style="text;html=1;resizable=0;points=[];autosize=1;align=left;verticalAlign=top;spacingTop=-4;fontColor=#000000;" parent="747YwQ7zbLFgy_TnoXMY-29" vertex="1">
                    <mxGeometry x="15" y="55" width="40" height="20" as="geometry"/>
                </mxCell>
                <mxCell id="747YwQ7zbLFgy_TnoXMY-56" value="LcIfcAuthor" style="text;html=1;resizable=0;points=[];autosize=1;align=left;verticalAlign=top;spacingTop=-4;fontColor=#000000;" parent="747YwQ7zbLFgy_TnoXMY-29" vertex="1">
                    <mxGeometry x="15" y="80" width="80" height="20" as="geometry"/>
                </mxCell>
                <mxCell id="747YwQ7zbLFgy_TnoXMY-57" value="child" style="text;html=1;resizable=0;points=[];autosize=1;align=left;verticalAlign=top;spacingTop=-4;fontColor=#000000;" parent="747YwQ7zbLFgy_TnoXMY-29" vertex="1">
                    <mxGeometry x="15" y="105" width="40" height="20" as="geometry"/>
                </mxCell>
                <mxCell id="747YwQ7zbLFgy_TnoXMY-58" value="..." style="text;html=1;resizable=0;points=[];autosize=1;align=left;verticalAlign=top;spacingTop=-4;fontColor=#000000;" parent="747YwQ7zbLFgy_TnoXMY-29" vertex="1">
                    <mxGeometry x="15" y="130" width="30" height="20" as="geometry"/>
                </mxCell>
                <mxCell id="747YwQ7zbLFgy_TnoXMY-30" value="category" style="swimlane;html=1;startSize=20;fillColor=#dae8fc;strokeColor=#6c8ebf;swimlaneFillColor=#DAE8FC;fontColor=#000000;" parent="747YwQ7zbLFgy_TnoXMY-27" vertex="1">
                    <mxGeometry x="220" y="20" width="110" height="160" as="geometry"/>
                </mxCell>
                <mxCell id="747YwQ7zbLFgy_TnoXMY-59" value="Physical" style="text;html=1;resizable=0;points=[];autosize=1;align=left;verticalAlign=top;spacingTop=-4;fontColor=#000000;" parent="747YwQ7zbLFgy_TnoXMY-30" vertex="1">
                    <mxGeometry x="20" y="30" width="60" height="20" as="geometry"/>
                </mxCell>
                <mxCell id="747YwQ7zbLFgy_TnoXMY-60" value="Physical" style="text;html=1;resizable=0;points=[];autosize=1;align=left;verticalAlign=top;spacingTop=-4;fontColor=#000000;" parent="747YwQ7zbLFgy_TnoXMY-30" vertex="1">
                    <mxGeometry x="20" y="55" width="60" height="20" as="geometry"/>
                </mxCell>
                <mxCell id="747YwQ7zbLFgy_TnoXMY-61" value="General" style="text;html=1;resizable=0;points=[];autosize=1;align=left;verticalAlign=top;spacingTop=-4;fontColor=#000000;" parent="747YwQ7zbLFgy_TnoXMY-30" vertex="1">
                    <mxGeometry x="20" y="80" width="60" height="20" as="geometry"/>
                </mxCell>
                <mxCell id="747YwQ7zbLFgy_TnoXMY-62" value="__child__" style="text;html=1;resizable=0;points=[];autosize=1;align=left;verticalAlign=top;spacingTop=-4;fontColor=#000000;" parent="747YwQ7zbLFgy_TnoXMY-30" vertex="1">
                    <mxGeometry x="20" y="105" width="70" height="20" as="geometry"/>
                </mxCell>
                <mxCell id="747YwQ7zbLFgy_TnoXMY-63" value="..." style="text;html=1;resizable=0;points=[];autosize=1;align=left;verticalAlign=top;spacingTop=-4;fontColor=#000000;" parent="747YwQ7zbLFgy_TnoXMY-30" vertex="1">
                    <mxGeometry x="20" y="130" width="30" height="20" as="geometry"/>
                </mxCell>
                <mxCell id="747YwQ7zbLFgy_TnoXMY-31" value="data_type" style="swimlane;html=1;startSize=20;fillColor=#dae8fc;strokeColor=#6c8ebf;swimlaneFillColor=#DAE8FC;fontColor=#000000;" parent="747YwQ7zbLFgy_TnoXMY-27" vertex="1">
                    <mxGeometry x="330" y="20" width="100" height="160" as="geometry"/>
                </mxCell>
                <mxCell id="747YwQ7zbLFgy_TnoXMY-64" value="double" style="text;html=1;resizable=0;points=[];autosize=1;align=left;verticalAlign=top;spacingTop=-4;fontColor=#000000;" parent="747YwQ7zbLFgy_TnoXMY-31" vertex="1">
                    <mxGeometry x="20" y="30" width="50" height="20" as="geometry"/>
                </mxCell>
                <mxCell id="747YwQ7zbLFgy_TnoXMY-65" value="double" style="text;html=1;resizable=0;points=[];autosize=1;align=left;verticalAlign=top;spacingTop=-4;fontColor=#000000;" parent="747YwQ7zbLFgy_TnoXMY-31" vertex="1">
                    <mxGeometry x="20" y="55" width="50" height="20" as="geometry"/>
                </mxCell>
                <mxCell id="747YwQ7zbLFgy_TnoXMY-66" value="string" style="text;html=1;resizable=0;points=[];autosize=1;align=left;verticalAlign=top;spacingTop=-4;fontColor=#000000;" parent="747YwQ7zbLFgy_TnoXMY-31" vertex="1">
                    <mxGeometry x="20" y="80" width="40" height="20" as="geometry"/>
                </mxCell>
                <mxCell id="747YwQ7zbLFgy_TnoXMY-67" value="DBID" style="text;html=1;resizable=0;points=[];autosize=1;align=left;verticalAlign=top;spacingTop=-4;fontColor=#000000;" parent="747YwQ7zbLFgy_TnoXMY-31" vertex="1">
                    <mxGeometry x="20" y="105" width="40" height="20" as="geometry"/>
                </mxCell>
                <mxCell id="747YwQ7zbLFgy_TnoXMY-68" value="..." style="text;html=1;resizable=0;points=[];autosize=1;align=left;verticalAlign=top;spacingTop=-4;fontColor=#000000;" parent="747YwQ7zbLFgy_TnoXMY-31" vertex="1">
                    <mxGeometry x="20" y="130" width="30" height="20" as="geometry"/>
                </mxCell>
                <mxCell id="747YwQ7zbLFgy_TnoXMY-32" value="data_type_context" style="swimlane;html=1;startSize=20;fillColor=#dae8fc;strokeColor=#6c8ebf;swimlaneFillColor=#DAE8FC;fontColor=#000000;" parent="747YwQ7zbLFgy_TnoXMY-27" vertex="1">
                    <mxGeometry x="430" y="20" width="130" height="160" as="geometry"/>
                </mxCell>
                <mxCell id="747YwQ7zbLFgy_TnoXMY-69" value="m^3" style="text;html=1;resizable=0;points=[];autosize=1;align=left;verticalAlign=top;spacingTop=-4;fontColor=#000000;" parent="747YwQ7zbLFgy_TnoXMY-32" vertex="1">
                    <mxGeometry x="20" y="30" width="40" height="20" as="geometry"/>
                </mxCell>
                <mxCell id="747YwQ7zbLFgy_TnoXMY-70" value="kg" style="text;html=1;resizable=0;points=[];autosize=1;align=left;verticalAlign=top;spacingTop=-4;fontColor=#000000;" parent="747YwQ7zbLFgy_TnoXMY-32" vertex="1">
                    <mxGeometry x="20" y="55" width="30" height="20" as="geometry"/>
                </mxCell>
                <mxCell id="747YwQ7zbLFgy_TnoXMY-71" value="null" style="text;html=1;resizable=0;points=[];autosize=1;align=left;verticalAlign=top;spacingTop=-4;fontColor=#000000;" parent="747YwQ7zbLFgy_TnoXMY-32" vertex="1">
                    <mxGeometry x="20" y="80" width="30" height="20" as="geometry"/>
                </mxCell>
                <mxCell id="747YwQ7zbLFgy_TnoXMY-72" value="null" style="text;html=1;resizable=0;points=[];autosize=1;align=left;verticalAlign=top;spacingTop=-4;fontColor=#000000;" parent="747YwQ7zbLFgy_TnoXMY-32" vertex="1">
                    <mxGeometry x="20" y="105" width="30" height="20" as="geometry"/>
                </mxCell>
                <mxCell id="747YwQ7zbLFgy_TnoXMY-73" value="..." style="text;html=1;resizable=0;points=[];autosize=1;align=left;verticalAlign=top;spacingTop=-4;fontColor=#000000;" parent="747YwQ7zbLFgy_TnoXMY-32" vertex="1">
                    <mxGeometry x="20" y="130" width="30" height="20" as="geometry"/>
                </mxCell>
                <mxCell id="747YwQ7zbLFgy_TnoXMY-33" value="description" style="swimlane;html=1;startSize=20;fillColor=#dae8fc;strokeColor=#6c8ebf;swimlaneFillColor=#DAE8FC;fontColor=#000000;" parent="747YwQ7zbLFgy_TnoXMY-27" vertex="1">
                    <mxGeometry x="560" y="20" width="110" height="160" as="geometry"/>
                </mxCell>
                <mxCell id="747YwQ7zbLFgy_TnoXMY-74" value="null" style="text;html=1;resizable=0;points=[];autosize=1;align=left;verticalAlign=top;spacingTop=-4;fontColor=#000000;" parent="747YwQ7zbLFgy_TnoXMY-33" vertex="1">
                    <mxGeometry x="20" y="30" width="30" height="20" as="geometry"/>
                </mxCell>
                <mxCell id="747YwQ7zbLFgy_TnoXMY-75" value="null" style="text;html=1;resizable=0;points=[];autosize=1;align=left;verticalAlign=top;spacingTop=-4;fontColor=#000000;" parent="747YwQ7zbLFgy_TnoXMY-33" vertex="1">
                    <mxGeometry x="20" y="55" width="30" height="20" as="geometry"/>
                </mxCell>
                <mxCell id="747YwQ7zbLFgy_TnoXMY-76" value="null" style="text;html=1;resizable=0;points=[];autosize=1;align=left;verticalAlign=top;spacingTop=-4;fontColor=#000000;" parent="747YwQ7zbLFgy_TnoXMY-33" vertex="1">
                    <mxGeometry x="20" y="80" width="30" height="20" as="geometry"/>
                </mxCell>
                <mxCell id="747YwQ7zbLFgy_TnoXMY-77" value="null" style="text;html=1;resizable=0;points=[];autosize=1;align=left;verticalAlign=top;spacingTop=-4;fontColor=#000000;" parent="747YwQ7zbLFgy_TnoXMY-33" vertex="1">
                    <mxGeometry x="20" y="105" width="30" height="20" as="geometry"/>
                </mxCell>
                <mxCell id="747YwQ7zbLFgy_TnoXMY-78" value="..." style="text;html=1;resizable=0;points=[];autosize=1;align=left;verticalAlign=top;spacingTop=-4;fontColor=#000000;" parent="747YwQ7zbLFgy_TnoXMY-33" vertex="1">
                    <mxGeometry x="20" y="130" width="30" height="20" as="geometry"/>
                </mxCell>
                <mxCell id="747YwQ7zbLFgy_TnoXMY-34" value="display_name" style="swimlane;html=1;startSize=20;fillColor=#dae8fc;strokeColor=#6c8ebf;swimlaneFillColor=#DAE8FC;fontColor=#000000;" parent="747YwQ7zbLFgy_TnoXMY-27" vertex="1">
                    <mxGeometry x="670" y="20" width="120" height="160" as="geometry"/>
                </mxCell>
                <mxCell id="747YwQ7zbLFgy_TnoXMY-79" value="null" style="text;html=1;resizable=0;points=[];autosize=1;align=left;verticalAlign=top;spacingTop=-4;fontColor=#000000;" parent="747YwQ7zbLFgy_TnoXMY-34" vertex="1">
                    <mxGeometry x="20" y="30" width="30" height="20" as="geometry"/>
                </mxCell>
                <mxCell id="747YwQ7zbLFgy_TnoXMY-80" value="null" style="text;html=1;resizable=0;points=[];autosize=1;align=left;verticalAlign=top;spacingTop=-4;fontColor=#000000;" parent="747YwQ7zbLFgy_TnoXMY-34" vertex="1">
                    <mxGeometry x="20" y="55" width="30" height="20" as="geometry"/>
                </mxCell>
                <mxCell id="747YwQ7zbLFgy_TnoXMY-81" value="Author" style="text;html=1;resizable=0;points=[];autosize=1;align=left;verticalAlign=top;spacingTop=-4;fontColor=#000000;" parent="747YwQ7zbLFgy_TnoXMY-34" vertex="1">
                    <mxGeometry x="20" y="80" width="50" height="20" as="geometry"/>
                </mxCell>
                <mxCell id="747YwQ7zbLFgy_TnoXMY-82" value="null" style="text;html=1;resizable=0;points=[];autosize=1;align=left;verticalAlign=top;spacingTop=-4;fontColor=#000000;" parent="747YwQ7zbLFgy_TnoXMY-34" vertex="1">
                    <mxGeometry x="20" y="105" width="30" height="20" as="geometry"/>
                </mxCell>
                <mxCell id="747YwQ7zbLFgy_TnoXMY-83" value="..." style="text;html=1;resizable=0;points=[];autosize=1;align=left;verticalAlign=top;spacingTop=-4;fontColor=#000000;" parent="747YwQ7zbLFgy_TnoXMY-34" vertex="1">
                    <mxGeometry x="20" y="130" width="30" height="20" as="geometry"/>
                </mxCell>
                <mxCell id="747YwQ7zbLFgy_TnoXMY-35" value="flags" style="swimlane;html=1;startSize=20;fillColor=#dae8fc;strokeColor=#6c8ebf;swimlaneFillColor=#DAE8FC;fontColor=#000000;" parent="747YwQ7zbLFgy_TnoXMY-27" vertex="1">
                    <mxGeometry x="790" y="20" width="80" height="160" as="geometry"/>
                </mxCell>
                <mxCell id="747YwQ7zbLFgy_TnoXMY-84" value="..." style="text;html=1;resizable=0;points=[];autosize=1;align=left;verticalAlign=top;spacingTop=-4;fontColor=#000000;" parent="747YwQ7zbLFgy_TnoXMY-35" vertex="1">
                    <mxGeometry x="20" y="30" width="30" height="20" as="geometry"/>
                </mxCell>
                <mxCell id="747YwQ7zbLFgy_TnoXMY-85" value="..." style="text;html=1;resizable=0;points=[];autosize=1;align=left;verticalAlign=top;spacingTop=-4;fontColor=#000000;" parent="747YwQ7zbLFgy_TnoXMY-35" vertex="1">
                    <mxGeometry x="20" y="55" width="30" height="20" as="geometry"/>
                </mxCell>
                <mxCell id="747YwQ7zbLFgy_TnoXMY-86" value="..." style="text;html=1;resizable=0;points=[];autosize=1;align=left;verticalAlign=top;spacingTop=-4;fontColor=#000000;" parent="747YwQ7zbLFgy_TnoXMY-35" vertex="1">
                    <mxGeometry x="20" y="80" width="30" height="20" as="geometry"/>
                </mxCell>
                <mxCell id="747YwQ7zbLFgy_TnoXMY-87" value="..." style="text;html=1;resizable=0;points=[];autosize=1;align=left;verticalAlign=top;spacingTop=-4;fontColor=#000000;" parent="747YwQ7zbLFgy_TnoXMY-35" vertex="1">
                    <mxGeometry x="20" y="105" width="30" height="20" as="geometry"/>
                </mxCell>
                <mxCell id="747YwQ7zbLFgy_TnoXMY-88" value="..." style="text;html=1;resizable=0;points=[];autosize=1;align=left;verticalAlign=top;spacingTop=-4;fontColor=#000000;" parent="747YwQ7zbLFgy_TnoXMY-35" vertex="1">
                    <mxGeometry x="20" y="130" width="30" height="20" as="geometry"/>
                </mxCell>
                <mxCell id="747YwQ7zbLFgy_TnoXMY-36" value="display_precision" style="swimlane;html=1;startSize=20;fillColor=#dae8fc;strokeColor=#6c8ebf;swimlaneFillColor=#DAE8FC;fontColor=#000000;" parent="747YwQ7zbLFgy_TnoXMY-27" vertex="1">
                    <mxGeometry x="870" y="20" width="140" height="160" as="geometry"/>
                </mxCell>
                <mxCell id="747YwQ7zbLFgy_TnoXMY-89" value="3" style="text;html=1;resizable=0;points=[];autosize=1;align=left;verticalAlign=top;spacingTop=-4;fontColor=#000000;" parent="747YwQ7zbLFgy_TnoXMY-36" vertex="1">
                    <mxGeometry x="20" y="30" width="20" height="20" as="geometry"/>
                </mxCell>
                <mxCell id="747YwQ7zbLFgy_TnoXMY-90" value="17" style="text;html=1;resizable=0;points=[];autosize=1;align=left;verticalAlign=top;spacingTop=-4;fontColor=#000000;" parent="747YwQ7zbLFgy_TnoXMY-36" vertex="1">
                    <mxGeometry x="20" y="55" width="30" height="20" as="geometry"/>
                </mxCell>
                <mxCell id="747YwQ7zbLFgy_TnoXMY-91" value="null" style="text;html=1;resizable=0;points=[];autosize=1;align=left;verticalAlign=top;spacingTop=-4;fontColor=#000000;" parent="747YwQ7zbLFgy_TnoXMY-36" vertex="1">
                    <mxGeometry x="20" y="80" width="30" height="20" as="geometry"/>
                </mxCell>
                <mxCell id="747YwQ7zbLFgy_TnoXMY-92" value="null" style="text;html=1;resizable=0;points=[];autosize=1;align=left;verticalAlign=top;spacingTop=-4;fontColor=#000000;" parent="747YwQ7zbLFgy_TnoXMY-36" vertex="1">
                    <mxGeometry x="20" y="105" width="30" height="20" as="geometry"/>
                </mxCell>
                <mxCell id="747YwQ7zbLFgy_TnoXMY-93" value="..." style="text;html=1;resizable=0;points=[];autosize=1;align=left;verticalAlign=top;spacingTop=-4;fontColor=#000000;" parent="747YwQ7zbLFgy_TnoXMY-36" vertex="1">
                    <mxGeometry x="20" y="130" width="30" height="20" as="geometry"/>
                </mxCell>
                <mxCell id="747YwQ7zbLFgy_TnoXMY-94" value="vals.json" style="swimlane;html=1;childLayout=stackLayout;resizeParent=1;resizeParentMax=0;startSize=20;fillColor=#0050ef;strokeColor=#001DBC;fontColor=#ffffff;" parent="1" vertex="1">
                    <mxGeometry x="340" y="650" width="240" height="180" as="geometry"/>
                </mxCell>
                <mxCell id="747YwQ7zbLFgy_TnoXMY-95" value="id (index)" style="swimlane;html=1;startSize=20;fillColor=#ffe6cc;strokeColor=#d79b00;swimlaneFillColor=#FFE6CC;fontColor=#000000;" parent="747YwQ7zbLFgy_TnoXMY-94" vertex="1">
                    <mxGeometry y="20" width="120" height="160" as="geometry"/>
                </mxCell>
                <mxCell id="747YwQ7zbLFgy_TnoXMY-96" value="1" style="text;html=1;resizable=0;points=[];autosize=1;align=left;verticalAlign=top;spacingTop=-4;fontColor=#000000;" parent="747YwQ7zbLFgy_TnoXMY-95" vertex="1">
                    <mxGeometry x="45" y="30" width="20" height="20" as="geometry"/>
                </mxCell>
                <mxCell id="747YwQ7zbLFgy_TnoXMY-97" value="2" style="text;html=1;resizable=0;points=[];autosize=1;align=left;verticalAlign=top;spacingTop=-4;fontColor=#000000;" parent="747YwQ7zbLFgy_TnoXMY-95" vertex="1">
                    <mxGeometry x="45" y="55" width="20" height="20" as="geometry"/>
                </mxCell>
                <mxCell id="747YwQ7zbLFgy_TnoXMY-98" value="3" style="text;html=1;resizable=0;points=[];autosize=1;align=left;verticalAlign=top;spacingTop=-4;fontColor=#000000;" parent="747YwQ7zbLFgy_TnoXMY-95" vertex="1">
                    <mxGeometry x="45" y="80" width="20" height="20" as="geometry"/>
                </mxCell>
                <mxCell id="747YwQ7zbLFgy_TnoXMY-99" value="4" style="text;html=1;resizable=0;points=[];autosize=1;align=left;verticalAlign=top;spacingTop=-4;fontColor=#000000;" parent="747YwQ7zbLFgy_TnoXMY-95" vertex="1">
                    <mxGeometry x="45" y="105" width="20" height="20" as="geometry"/>
                </mxCell>
                <mxCell id="747YwQ7zbLFgy_TnoXMY-107" value="..." style="text;html=1;resizable=0;points=[];autosize=1;align=left;verticalAlign=top;spacingTop=-4;fontColor=#000000;" parent="747YwQ7zbLFgy_TnoXMY-95" vertex="1">
                    <mxGeometry x="45" y="130" width="30" height="20" as="geometry"/>
                </mxCell>
                <mxCell id="747YwQ7zbLFgy_TnoXMY-100" value="value" style="swimlane;html=1;startSize=20;fillColor=#dae8fc;strokeColor=#6c8ebf;labelBackgroundColor=none;swimlaneFillColor=#DAE8FC;fontColor=#000000;" parent="747YwQ7zbLFgy_TnoXMY-94" vertex="1">
                    <mxGeometry x="120" y="20" width="120" height="160" as="geometry"/>
                </mxCell>
                <mxCell id="747YwQ7zbLFgy_TnoXMY-101" value="23.1" style="text;html=1;resizable=0;points=[];autosize=1;align=left;verticalAlign=top;spacingTop=-4;fontColor=#000000;" parent="747YwQ7zbLFgy_TnoXMY-100" vertex="1">
                    <mxGeometry x="20" y="30" width="40" height="20" as="geometry"/>
                </mxCell>
                <mxCell id="747YwQ7zbLFgy_TnoXMY-102" value="Steve" style="text;html=1;resizable=0;points=[];autosize=1;align=left;verticalAlign=top;spacingTop=-4;fontColor=#000000;" parent="747YwQ7zbLFgy_TnoXMY-100" vertex="1">
                    <mxGeometry x="20" y="55" width="50" height="20" as="geometry"/>
                </mxCell>
                <mxCell id="747YwQ7zbLFgy_TnoXMY-103" value="3" style="text;html=1;resizable=0;points=[];autosize=1;align=left;verticalAlign=top;spacingTop=-4;fontColor=#000000;" parent="747YwQ7zbLFgy_TnoXMY-100" vertex="1">
                    <mxGeometry x="20" y="80" width="20" height="20" as="geometry"/>
                </mxCell>
                <mxCell id="747YwQ7zbLFgy_TnoXMY-104" value="345.67" style="text;html=1;resizable=0;points=[];autosize=1;align=left;verticalAlign=top;spacingTop=-4;fontColor=#000000;" parent="747YwQ7zbLFgy_TnoXMY-100" vertex="1">
                    <mxGeometry x="20" y="105" width="50" height="20" as="geometry"/>
                </mxCell>
                <mxCell id="747YwQ7zbLFgy_TnoXMY-108" value="..." style="text;html=1;resizable=0;points=[];autosize=1;align=left;verticalAlign=top;spacingTop=-4;fontColor=#000000;" parent="747YwQ7zbLFgy_TnoXMY-100" vertex="1">
                    <mxGeometry x="20" y="130" width="30" height="20" as="geometry"/>
                </mxCell>
                <mxCell id="747YwQ7zbLFgy_TnoXMY-120" value="avs.idx" style="swimlane;html=1;childLayout=stackLayout;resizeParent=1;resizeParentMax=0;startSize=20;fillColor=#0050ef;strokeColor=#001DBC;fontColor=#ffffff;" parent="1" vertex="1">
                    <mxGeometry x="70" y="40" width="240" height="295" as="geometry"/>
                </mxCell>
                <mxCell id="747YwQ7zbLFgy_TnoXMY-121" value="id (Index)" style="swimlane;html=1;startSize=20;fillColor=#ffe6cc;strokeColor=#d79b00;swimlaneFillColor=#FFE6CC;fontColor=#000000;" parent="747YwQ7zbLFgy_TnoXMY-120" vertex="1">
                    <mxGeometry y="20" width="120" height="275" as="geometry"/>
                </mxCell>
                <mxCell id="747YwQ7zbLFgy_TnoXMY-123" value="1" style="text;html=1;resizable=0;points=[];autosize=1;align=left;verticalAlign=top;spacingTop=-4;fontColor=#000000;" parent="747YwQ7zbLFgy_TnoXMY-121" vertex="1">
                    <mxGeometry x="45" y="30" width="20" height="20" as="geometry"/>
                </mxCell>
                <mxCell id="747YwQ7zbLFgy_TnoXMY-124" value="2" style="text;html=1;resizable=0;points=[];autosize=1;align=left;verticalAlign=top;spacingTop=-4;fontColor=#000000;" parent="747YwQ7zbLFgy_TnoXMY-121" vertex="1">
                    <mxGeometry x="45" y="55" width="20" height="20" as="geometry"/>
                </mxCell>
                <mxCell id="747YwQ7zbLFgy_TnoXMY-125" value="..." style="text;html=1;resizable=0;points=[];autosize=1;align=left;verticalAlign=top;spacingTop=-4;fontColor=#000000;" parent="747YwQ7zbLFgy_TnoXMY-121" vertex="1">
                    <mxGeometry x="40" y="230" width="30" height="20" as="geometry"/>
                </mxCell>
                <mxCell id="747YwQ7zbLFgy_TnoXMY-159" value="3" style="text;html=1;resizable=0;points=[];autosize=1;align=left;verticalAlign=top;spacingTop=-4;fontColor=#000000;" parent="747YwQ7zbLFgy_TnoXMY-121" vertex="1">
                    <mxGeometry x="45" y="85" width="20" height="20" as="geometry"/>
                </mxCell>
                <mxCell id="747YwQ7zbLFgy_TnoXMY-160" value="4" style="text;html=1;resizable=0;points=[];autosize=1;align=left;verticalAlign=top;spacingTop=-4;fontColor=#000000;" parent="747YwQ7zbLFgy_TnoXMY-121" vertex="1">
                    <mxGeometry x="45" y="110" width="20" height="20" as="geometry"/>
                </mxCell>
                <mxCell id="747YwQ7zbLFgy_TnoXMY-161" value="5" style="text;html=1;resizable=0;points=[];autosize=1;align=left;verticalAlign=top;spacingTop=-4;fontColor=#000000;" parent="747YwQ7zbLFgy_TnoXMY-121" vertex="1">
                    <mxGeometry x="45" y="135" width="20" height="20" as="geometry"/>
                </mxCell>
                <mxCell id="747YwQ7zbLFgy_TnoXMY-162" value="6" style="text;html=1;resizable=0;points=[];autosize=1;align=left;verticalAlign=top;spacingTop=-4;fontColor=#000000;" parent="747YwQ7zbLFgy_TnoXMY-121" vertex="1">
                    <mxGeometry x="45" y="160" width="20" height="20" as="geometry"/>
                </mxCell>
                <mxCell id="747YwQ7zbLFgy_TnoXMY-163" value="7" style="text;html=1;resizable=0;points=[];autosize=1;align=left;verticalAlign=top;spacingTop=-4;fontColor=#000000;" parent="747YwQ7zbLFgy_TnoXMY-121" vertex="1">
                    <mxGeometry x="45" y="185" width="20" height="20" as="geometry"/>
                </mxCell>
                <mxCell id="30" value="8" style="text;html=1;resizable=0;points=[];autosize=1;align=left;verticalAlign=top;spacingTop=-4;fontColor=#000000;" parent="747YwQ7zbLFgy_TnoXMY-121" vertex="1">
                    <mxGeometry x="45" y="210" width="20" height="20" as="geometry"/>
                </mxCell>
                <mxCell id="747YwQ7zbLFgy_TnoXMY-126" value="offsets" style="swimlane;html=1;startSize=20;fillColor=#dae8fc;strokeColor=#6c8ebf;labelBackgroundColor=none;swimlaneFillColor=#DAE8FC;fontColor=#000000;" parent="747YwQ7zbLFgy_TnoXMY-120" vertex="1">
                    <mxGeometry x="120" y="20" width="120" height="275" as="geometry"/>
                </mxCell>
                <mxCell id="747YwQ7zbLFgy_TnoXMY-127" value="1" style="text;html=1;resizable=0;points=[];autosize=1;align=left;verticalAlign=top;spacingTop=-4;fontColor=#000000;" parent="747YwQ7zbLFgy_TnoXMY-126" vertex="1">
                    <mxGeometry x="20" y="30" width="20" height="20" as="geometry"/>
                </mxCell>
                <mxCell id="747YwQ7zbLFgy_TnoXMY-128" value="4" style="text;html=1;resizable=0;points=[];autosize=1;align=left;verticalAlign=top;spacingTop=-4;fontColor=#000000;" parent="747YwQ7zbLFgy_TnoXMY-126" vertex="1">
                    <mxGeometry x="20" y="55" width="20" height="20" as="geometry"/>
                </mxCell>
                <mxCell id="747YwQ7zbLFgy_TnoXMY-129" value="12" style="text;html=1;resizable=0;points=[];autosize=1;align=left;verticalAlign=top;spacingTop=-4;fontColor=#000000;" parent="747YwQ7zbLFgy_TnoXMY-126" vertex="1">
                    <mxGeometry x="20" y="80" width="30" height="20" as="geometry"/>
                </mxCell>
                <mxCell id="747YwQ7zbLFgy_TnoXMY-130" value="..." style="text;html=1;resizable=0;points=[];autosize=1;align=left;verticalAlign=top;spacingTop=-4;fontColor=#000000;" parent="747YwQ7zbLFgy_TnoXMY-126" vertex="1">
                    <mxGeometry x="20" y="230" width="30" height="20" as="geometry"/>
                </mxCell>
                <mxCell id="747YwQ7zbLFgy_TnoXMY-164" value="21" style="text;html=1;resizable=0;points=[];autosize=1;align=left;verticalAlign=top;spacingTop=-4;fontColor=#000000;" parent="747YwQ7zbLFgy_TnoXMY-126" vertex="1">
                    <mxGeometry x="20" y="110" width="30" height="20" as="geometry"/>
                </mxCell>
                <mxCell id="747YwQ7zbLFgy_TnoXMY-165" value="24" style="text;html=1;resizable=0;points=[];autosize=1;align=left;verticalAlign=top;spacingTop=-4;fontColor=#000000;" parent="747YwQ7zbLFgy_TnoXMY-126" vertex="1">
                    <mxGeometry x="20" y="135" width="30" height="20" as="geometry"/>
                </mxCell>
                <mxCell id="747YwQ7zbLFgy_TnoXMY-166" value="36" style="text;html=1;resizable=0;points=[];autosize=1;align=left;verticalAlign=top;spacingTop=-4;direction=south;fontColor=#000000;" parent="747YwQ7zbLFgy_TnoXMY-126" vertex="1">
                    <mxGeometry x="20" y="160" width="30" height="20" as="geometry"/>
                </mxCell>
                <mxCell id="747YwQ7zbLFgy_TnoXMY-167" value="41" style="text;html=1;resizable=0;points=[];autosize=1;align=left;verticalAlign=top;spacingTop=-4;fontColor=#000000;" parent="747YwQ7zbLFgy_TnoXMY-126" vertex="1">
                    <mxGeometry x="20" y="185" width="30" height="20" as="geometry"/>
                </mxCell>
                <mxCell id="747YwQ7zbLFgy_TnoXMY-168" value="49" style="text;html=1;resizable=0;points=[];autosize=1;align=left;verticalAlign=top;spacingTop=-4;direction=south;fontColor=#000000;" parent="747YwQ7zbLFgy_TnoXMY-126" vertex="1">
                    <mxGeometry x="20" y="210" width="30" height="20" as="geometry"/>
                </mxCell>
                <mxCell id="747YwQ7zbLFgy_TnoXMY-169" style="edgeStyle=orthogonalEdgeStyle;rounded=0;orthogonalLoop=1;jettySize=auto;html=1;entryX=0;entryY=0.5;entryDx=0;entryDy=0;strokeWidth=2;strokeColor=#CC0000;exitX=0.75;exitY=1;exitDx=0;exitDy=0;" parent="1" source="42" target="747YwQ7zbLFgy_TnoXMY-27" edge="1">
                    <mxGeometry relative="1" as="geometry">
                        <Array as="points">
                            <mxPoint x="610" y="740"/>
                        </Array>
                        <mxPoint x="560" y="340" as="sourcePoint"/>
                    </mxGeometry>
                </mxCell>
                <mxCell id="29" style="edgeStyle=orthogonalEdgeStyle;rounded=0;orthogonalLoop=1;jettySize=auto;html=1;entryX=0;entryY=0.5;entryDx=0;entryDy=0;strokeWidth=2;strokeColor=#CC0000;exitX=0.25;exitY=1;exitDx=0;exitDy=0;" parent="1" source="747YwQ7zbLFgy_TnoXMY-120" target="747YwQ7zbLFgy_TnoXMY-14" edge="1">
                    <mxGeometry relative="1" as="geometry">
                        <Array as="points">
                            <mxPoint x="130" y="380"/>
                            <mxPoint x="40" y="380"/>
                            <mxPoint x="40" y="740"/>
                        </Array>
                        <mxPoint x="290" y="410" as="sourcePoint"/>
                        <mxPoint x="430" y="610" as="targetPoint"/>
                    </mxGeometry>
                </mxCell>
                <mxCell id="31" value="avs.pack" style="swimlane;html=1;childLayout=stackLayout;resizeParent=1;resizeParentMax=0;startSize=20;fillColor=#0050ef;strokeColor=#001DBC;fontColor=#ffffff;" vertex="1" parent="1">
                    <mxGeometry x="400" y="40" width="240" height="295" as="geometry"/>
                </mxCell>
                <mxCell id="32" value="id (Index)" style="swimlane;html=1;startSize=20;fillColor=#ffe6cc;strokeColor=#d79b00;swimlaneFillColor=#FFE6CC;fontColor=#000000;" vertex="1" parent="31">
                    <mxGeometry y="20" width="120" height="275" as="geometry"/>
                </mxCell>
                <mxCell id="33" value="1" style="text;html=1;resizable=0;points=[];autosize=1;align=left;verticalAlign=top;spacingTop=-4;fontColor=#000000;" vertex="1" parent="32">
                    <mxGeometry x="45" y="30" width="20" height="20" as="geometry"/>
                </mxCell>
                <mxCell id="34" value="2" style="text;html=1;resizable=0;points=[];autosize=1;align=left;verticalAlign=top;spacingTop=-4;fontColor=#000000;" vertex="1" parent="32">
                    <mxGeometry x="45" y="55" width="20" height="20" as="geometry"/>
                </mxCell>
                <mxCell id="35" value="..." style="text;html=1;resizable=0;points=[];autosize=1;align=left;verticalAlign=top;spacingTop=-4;fontColor=#000000;" vertex="1" parent="32">
                    <mxGeometry x="40" y="230" width="30" height="20" as="geometry"/>
                </mxCell>
                <mxCell id="36" value="3" style="text;html=1;resizable=0;points=[];autosize=1;align=left;verticalAlign=top;spacingTop=-4;fontColor=#000000;" vertex="1" parent="32">
                    <mxGeometry x="45" y="85" width="20" height="20" as="geometry"/>
                </mxCell>
                <mxCell id="37" value="4" style="text;html=1;resizable=0;points=[];autosize=1;align=left;verticalAlign=top;spacingTop=-4;fontColor=#000000;" vertex="1" parent="32">
                    <mxGeometry x="45" y="110" width="20" height="20" as="geometry"/>
                </mxCell>
                <mxCell id="38" value="5" style="text;html=1;resizable=0;points=[];autosize=1;align=left;verticalAlign=top;spacingTop=-4;fontColor=#000000;" vertex="1" parent="32">
                    <mxGeometry x="45" y="135" width="20" height="20" as="geometry"/>
                </mxCell>
                <mxCell id="39" value="6" style="text;html=1;resizable=0;points=[];autosize=1;align=left;verticalAlign=top;spacingTop=-4;fontColor=#000000;" vertex="1" parent="32">
                    <mxGeometry x="45" y="160" width="20" height="20" as="geometry"/>
                </mxCell>
                <mxCell id="40" value="7" style="text;html=1;resizable=0;points=[];autosize=1;align=left;verticalAlign=top;spacingTop=-4;fontColor=#000000;" vertex="1" parent="32">
                    <mxGeometry x="45" y="185" width="20" height="20" as="geometry"/>
                </mxCell>
                <mxCell id="41" value="8" style="text;html=1;resizable=0;points=[];autosize=1;align=left;verticalAlign=top;spacingTop=-4;fontColor=#000000;" vertex="1" parent="32">
                    <mxGeometry x="45" y="210" width="20" height="20" as="geometry"/>
                </mxCell>
                <mxCell id="42" value="pairs-values" style="swimlane;html=1;startSize=20;fillColor=#dae8fc;strokeColor=#6c8ebf;labelBackgroundColor=none;swimlaneFillColor=#DAE8FC;fontColor=#000000;" vertex="1" parent="31">
                    <mxGeometry x="120" y="20" width="120" height="275" as="geometry"/>
                </mxCell>
                <mxCell id="43" value="1" style="text;html=1;resizable=0;points=[];autosize=1;align=left;verticalAlign=top;spacingTop=-4;fontColor=#000000;" vertex="1" parent="42">
                    <mxGeometry x="20" y="29" width="20" height="20" as="geometry"/>
                </mxCell>
                <mxCell id="44" value="4" style="text;html=1;resizable=0;points=[];autosize=1;align=left;verticalAlign=top;spacingTop=-4;fontColor=#000000;" vertex="1" parent="42">
                    <mxGeometry x="20" y="55" width="20" height="20" as="geometry"/>
                </mxCell>
                <mxCell id="45" value="3" style="text;html=1;resizable=0;points=[];autosize=1;align=left;verticalAlign=top;spacingTop=-4;fontColor=#000000;" vertex="1" parent="42">
                    <mxGeometry x="20" y="80" width="20" height="20" as="geometry"/>
                </mxCell>
                <mxCell id="46" value="..." style="text;html=1;resizable=0;points=[];autosize=1;align=left;verticalAlign=top;spacingTop=-4;fontColor=#000000;" vertex="1" parent="42">
                    <mxGeometry x="20" y="230" width="30" height="20" as="geometry"/>
                </mxCell>
                <mxCell id="47" value="1" style="text;html=1;resizable=0;points=[];autosize=1;align=left;verticalAlign=top;spacingTop=-4;fontColor=#000000;" vertex="1" parent="42">
                    <mxGeometry x="20" y="110" width="20" height="20" as="geometry"/>
                </mxCell>
                <mxCell id="48" value="5" style="text;html=1;resizable=0;points=[];autosize=1;align=left;verticalAlign=top;spacingTop=-4;fontColor=#000000;" vertex="1" parent="42">
                    <mxGeometry x="20" y="135" width="20" height="20" as="geometry"/>
                </mxCell>
                <mxCell id="49" value="6" style="text;html=1;resizable=0;points=[];autosize=1;align=left;verticalAlign=top;spacingTop=-4;direction=south;fontColor=#000000;" vertex="1" parent="42">
                    <mxGeometry x="20" y="160" width="20" height="20" as="geometry"/>
                </mxCell>
                <mxCell id="50" value="3" style="text;html=1;resizable=0;points=[];autosize=1;align=left;verticalAlign=top;spacingTop=-4;fontColor=#000000;" vertex="1" parent="42">
                    <mxGeometry x="20" y="185" width="20" height="20" as="geometry"/>
                </mxCell>
                <mxCell id="51" value="15" style="text;html=1;resizable=0;points=[];autosize=1;align=left;verticalAlign=top;spacingTop=-4;direction=south;fontColor=#000000;" vertex="1" parent="42">
                    <mxGeometry x="20" y="210" width="30" height="20" as="geometry"/>
                </mxCell>
                <mxCell id="52" style="edgeStyle=orthogonalEdgeStyle;rounded=0;orthogonalLoop=1;jettySize=auto;html=1;strokeWidth=2;strokeColor=#CC0000;exitX=1;exitY=0.5;exitDx=0;exitDy=0;entryX=0;entryY=0.5;entryDx=0;entryDy=0;" edge="1" parent="1" source="747YwQ7zbLFgy_TnoXMY-120" target="31">
                    <mxGeometry relative="1" as="geometry">
                        <Array as="points"/>
                        <mxPoint x="310" y="390" as="sourcePoint"/>
                        <mxPoint x="380" y="188" as="targetPoint"/>
                    </mxGeometry>
                </mxCell>
                <mxCell id="28" style="edgeStyle=orthogonalEdgeStyle;rounded=0;orthogonalLoop=1;jettySize=auto;html=1;entryX=0;entryY=0.75;entryDx=0;entryDy=0;strokeWidth=2;strokeColor=#CC0000;" parent="1" target="747YwQ7zbLFgy_TnoXMY-95" edge="1">
                    <mxGeometry relative="1" as="geometry">
                        <Array as="points">
                            <mxPoint x="560" y="600"/>
                            <mxPoint x="310" y="600"/>
                            <mxPoint x="310" y="790"/>
                        </Array>
                        <mxPoint x="560" y="340" as="sourcePoint"/>
                        <mxPoint x="430" y="610" as="targetPoint"/>
                    </mxGeometry>
                </mxCell>
            </root>
        </mxGraphModel>
    </diagram>
</mxfile>